# xmcd
#
# Track frame offsets:
#	150
#	21025
#	43650
#	70649
#	90275
#	113331
#	136385
#	157625
#	185125
#	207753
#
# Disc length: 3075 seconds
#
# Revision: 0
# Processed by: cddbd v1.5.2PL0 Copyright (c) Steve Scherf et al.
# Submitted via: EasyCDDAExtractor 16.0.9.1
#
DISCID=710c010a
DTITLE=Khánh Hà - KH65: Tình Khúc Ngô Thụy Miên
DYEAR=2004
DGENRE=Pop
TTITLE0=Khánh Hà - Miên Khúc
TTITLE1=Khánh Hà - Một Cõi Tình Phai
TTITLE2=Khánh Hà - Một Đời Quên Lãng
TTITLE3=Khánh Hà and Thúy Anh - Tình Khúc Mùa Xuân
TTITLE4=Khánh Hà - Trong Nỗi Nhớ Muộn Màng
TTITLE5=Khánh Hà - Nỗi Đau Muộn Màng
TTITLE6=Khánh Hà - Mắt Biếc
TTITLE7=Khánh Hà and Tô Chấn Phong - Niệm Khúc Cuối
TTITLE8=Khánh Hà - Mây Bốn Phương Trời
TTITLE9=Khánh Hà - Dấu Tình Sầu
EXTD=
EXTT0=
EXTT1=
EXTT2=
EXTT3=
EXTT4=
EXTT5=
EXTT6=
EXTT7=
EXTT8=
EXTT9=
PLAYORDER=
